<svg xmlns="http://www.w3.org/2000/svg" xmlns:xlink="http://www.w3.org/1999/xlink" width="500" zoomAndPan="magnify" viewBox="0 0 375 374.999991" height="500" preserveAspectRatio="xMidYMid meet" version="1.0"><defs><clipPath id="f2a8651a53"><path d="M 24.859375 24.859375 L 350.359375 24.859375 L 350.359375 350.359375 L 24.859375 350.359375 Z M 24.859375 24.859375 " clip-rule="nonzero"/></clipPath></defs><rect x="-37.5" width="450" fill="#ffffff" y="-37.499999" height="449.999989" fill-opacity="1"/><rect x="-37.5" width="450" fill="#ffffff" y="-37.499999" height="449.999989" fill-opacity="1"/><g clip-path="url(#f2a8651a53)"><path fill="#000000" d="M 350.367188 187.609375 C 350.367188 190.273438 350.300781 192.933594 350.171875 195.59375 C 350.039062 198.253906 349.84375 200.910156 349.582031 203.5625 C 349.320312 206.210938 348.996094 208.855469 348.605469 211.488281 C 348.214844 214.125 347.757812 216.746094 347.238281 219.359375 C 346.71875 221.972656 346.136719 224.570312 345.488281 227.152344 C 344.839844 229.738281 344.132812 232.304688 343.359375 234.851562 C 342.585938 237.402344 341.75 239.929688 340.851562 242.4375 C 339.957031 244.945312 338.996094 247.429688 337.976562 249.890625 C 336.957031 252.351562 335.878906 254.785156 334.742188 257.191406 C 333.601562 259.601562 332.40625 261.980469 331.148438 264.328125 C 329.894531 266.675781 328.582031 268.996094 327.210938 271.277344 C 325.84375 273.5625 324.417969 275.8125 322.9375 278.027344 C 321.457031 280.242188 319.925781 282.417969 318.339844 284.558594 C 316.75 286.699219 315.113281 288.796875 313.421875 290.855469 C 311.734375 292.914062 309.996094 294.929688 308.207031 296.90625 C 306.417969 298.878906 304.582031 300.808594 302.699219 302.691406 C 300.8125 304.574219 298.886719 306.410156 296.914062 308.199219 C 294.9375 309.988281 292.921875 311.726562 290.863281 313.417969 C 288.804688 315.105469 286.707031 316.742188 284.566406 318.332031 C 282.425781 319.917969 280.25 321.449219 278.035156 322.929688 C 275.820312 324.410156 273.570312 325.835938 271.285156 327.203125 C 269 328.574219 266.683594 329.886719 264.335938 331.140625 C 261.988281 332.398438 259.609375 333.59375 257.199219 334.734375 C 254.792969 335.871094 252.359375 336.949219 249.898438 337.96875 C 247.4375 338.988281 244.953125 339.949219 242.445312 340.84375 C 239.9375 341.742188 237.410156 342.578125 234.859375 343.351562 C 232.3125 344.125 229.746094 344.835938 227.160156 345.480469 C 224.578125 346.128906 221.980469 346.710938 219.367188 347.230469 C 216.753906 347.75 214.132812 348.207031 211.496094 348.597656 C 208.863281 348.988281 206.21875 349.3125 203.570312 349.574219 C 200.917969 349.835938 198.261719 350.03125 195.601562 350.164062 C 192.941406 350.292969 190.28125 350.359375 187.617188 350.359375 C 184.953125 350.359375 182.289062 350.292969 179.628906 350.164062 C 176.96875 350.03125 174.316406 349.835938 171.664062 349.574219 C 169.011719 349.3125 166.371094 348.988281 163.734375 348.597656 C 161.101562 348.207031 158.476562 347.75 155.867188 347.230469 C 153.253906 346.710938 150.65625 346.128906 148.070312 345.480469 C 145.488281 344.835938 142.921875 344.125 140.371094 343.351562 C 137.824219 342.578125 135.296875 341.742188 132.789062 340.84375 C 130.28125 339.949219 127.796875 338.988281 125.335938 337.96875 C 122.875 336.949219 120.4375 335.871094 118.03125 334.734375 C 115.625 333.59375 113.246094 332.398438 110.894531 331.140625 C 108.546875 329.886719 106.230469 328.574219 103.945312 327.203125 C 101.660156 325.835938 99.410156 324.410156 97.195312 322.929688 C 94.984375 321.449219 92.804688 319.917969 90.667969 318.332031 C 88.527344 316.742188 86.425781 315.105469 84.367188 313.417969 C 82.308594 311.726562 80.292969 309.988281 78.320312 308.199219 C 76.347656 306.410156 74.417969 304.574219 72.535156 302.691406 C 70.652344 300.808594 68.816406 298.878906 67.027344 296.90625 C 65.238281 294.929688 63.5 292.914062 61.808594 290.855469 C 60.117188 288.796875 58.480469 286.699219 56.894531 284.558594 C 55.308594 282.417969 53.773438 280.242188 52.292969 278.027344 C 50.816406 275.8125 49.390625 273.5625 48.019531 271.277344 C 46.652344 268.996094 45.339844 266.675781 44.082031 264.328125 C 42.828125 261.980469 41.628906 259.601562 40.492188 257.191406 C 39.351562 254.785156 38.273438 252.351562 37.253906 249.890625 C 36.234375 247.429688 35.277344 244.945312 34.378906 242.4375 C 33.484375 239.929688 32.648438 237.402344 31.875 234.851562 C 31.101562 232.304688 30.390625 229.738281 29.742188 227.152344 C 29.097656 224.570312 28.511719 221.972656 27.992188 219.359375 C 27.472656 216.746094 27.019531 214.125 26.628906 211.488281 C 26.238281 208.855469 25.910156 206.210938 25.648438 203.5625 C 25.390625 200.910156 25.191406 198.253906 25.0625 195.59375 C 24.929688 192.933594 24.867188 190.273438 24.867188 187.609375 C 24.867188 184.945312 24.929688 182.285156 25.0625 179.621094 C 25.191406 176.960938 25.390625 174.308594 25.648438 171.65625 C 25.910156 169.003906 26.238281 166.363281 26.628906 163.726562 C 27.019531 161.09375 27.472656 158.46875 27.992188 155.859375 C 28.511719 153.246094 29.097656 150.648438 29.742188 148.0625 C 30.390625 145.480469 31.101562 142.914062 31.875 140.363281 C 32.648438 137.816406 33.484375 135.289062 34.378906 132.78125 C 35.277344 130.273438 36.234375 127.789062 37.253906 125.328125 C 38.273438 122.867188 39.351562 120.433594 40.492188 118.023438 C 41.628906 115.617188 42.828125 113.238281 44.082031 110.890625 C 45.339844 108.539062 46.652344 106.222656 48.019531 103.9375 C 49.390625 101.652344 50.816406 99.40625 52.292969 97.191406 C 53.773438 94.976562 55.308594 92.796875 56.894531 90.660156 C 58.480469 88.519531 60.117188 86.421875 61.808594 84.359375 C 63.5 82.300781 65.238281 80.285156 67.027344 78.3125 C 68.816406 76.339844 70.652344 74.410156 72.535156 72.527344 C 74.417969 70.644531 76.347656 68.808594 78.320312 67.019531 C 80.292969 65.230469 82.308594 63.492188 84.367188 61.800781 C 86.425781 60.113281 88.527344 58.472656 90.667969 56.886719 C 92.804688 55.300781 94.984375 53.765625 97.195312 52.285156 C 99.410156 50.808594 101.660156 49.382812 103.945312 48.011719 C 106.230469 46.644531 108.546875 45.332031 110.894531 44.074219 C 113.246094 42.820312 115.625 41.625 118.03125 40.484375 C 120.4375 39.34375 122.875 38.265625 125.335938 37.246094 C 127.796875 36.226562 130.28125 35.269531 132.789062 34.371094 C 135.296875 33.476562 137.824219 32.640625 140.371094 31.867188 C 142.921875 31.09375 145.488281 30.382812 148.070312 29.734375 C 150.65625 29.089844 153.253906 28.503906 155.867188 27.984375 C 158.476562 27.464844 161.101562 27.011719 163.734375 26.621094 C 166.371094 26.230469 169.011719 25.902344 171.664062 25.640625 C 174.316406 25.382812 176.96875 25.183594 179.628906 25.054688 C 182.289062 24.925781 184.953125 24.859375 187.617188 24.859375 C 190.28125 24.859375 192.941406 24.925781 195.601562 25.054688 C 198.261719 25.183594 200.917969 25.382812 203.570312 25.640625 C 206.21875 25.902344 208.863281 26.230469 211.496094 26.621094 C 214.132812 27.011719 216.753906 27.464844 219.367188 27.984375 C 221.980469 28.503906 224.578125 29.089844 227.160156 29.734375 C 229.746094 30.382812 232.3125 31.09375 234.859375 31.867188 C 237.410156 32.640625 239.9375 33.476562 242.445312 34.371094 C 244.953125 35.269531 247.4375 36.226562 249.898438 37.246094 C 252.359375 38.265625 254.792969 39.34375 257.199219 40.484375 C 259.609375 41.625 261.988281 42.820312 264.335938 44.074219 C 266.683594 45.332031 269 46.644531 271.285156 48.011719 C 273.570312 49.382812 275.820312 50.808594 278.035156 52.285156 C 280.25 53.765625 282.425781 55.300781 284.566406 56.886719 C 286.707031 58.472656 288.804688 60.113281 290.863281 61.800781 C 292.921875 63.492188 294.9375 65.230469 296.914062 67.019531 C 298.886719 68.808594 300.8125 70.644531 302.699219 72.527344 C 304.582031 74.410156 306.417969 76.339844 308.207031 78.3125 C 309.996094 80.285156 311.734375 82.300781 313.421875 84.359375 C 315.113281 86.421875 316.75 88.519531 318.339844 90.660156 C 319.925781 92.796875 321.457031 94.976562 322.9375 97.191406 C 324.417969 99.40625 325.84375 101.652344 327.210938 103.9375 C 328.582031 106.222656 329.894531 108.539062 331.148438 110.890625 C 332.40625 113.238281 333.601562 115.617188 334.742188 118.023438 C 335.878906 120.433594 336.957031 122.867188 337.976562 125.328125 C 338.996094 127.789062 339.957031 130.273438 340.851562 132.78125 C 341.75 135.289062 342.585938 137.816406 343.359375 140.363281 C 344.132812 142.914062 344.839844 145.480469 345.488281 148.0625 C 346.136719 150.648438 346.71875 153.246094 347.238281 155.859375 C 347.757812 158.46875 348.214844 161.09375 348.605469 163.726562 C 348.996094 166.363281 349.320312 169.003906 349.582031 171.65625 C 349.84375 174.308594 350.039062 176.960938 350.171875 179.621094 C 350.300781 182.285156 350.367188 184.945312 350.367188 187.609375 Z M 350.367188 187.609375 " fill-opacity="1" fill-rule="nonzero"/></g><path fill="#ffffff" d="M 90.117188 128.289062 C 91.773438 127.191406 93.757812 126.554688 95.890625 126.554688 L 278.378906 126.554688 C 280.769531 126.554688 282.972656 127.355469 284.738281 128.707031 L 187.195312 181.648438 Z M 287.597656 243.164062 C 288.398438 241.683594 288.851562 239.988281 288.851562 238.1875 L 288.851562 138.3125 L 228.675781 170.398438 Z M 85.414062 137.59375 L 85.414062 238.1875 C 85.414062 239.113281 85.535156 240.011719 85.761719 240.867188 L 145.707031 170.402344 Z M 219.292969 175.660156 L 189.753906 192.222656 C 188.960938 192.667969 188.078125 192.890625 187.195312 192.890625 C 186.3125 192.890625 185.429688 192.667969 184.632812 192.222656 L 155.09375 175.664062 L 93.183594 248.308594 C 94.046875 248.539062 94.953125 248.664062 95.890625 248.664062 L 278.378906 248.664062 C 278.445312 248.664062 278.511719 248.660156 278.578125 248.660156 Z M 219.292969 175.660156 " fill-opacity="1" fill-rule="nonzero"/></svg>